<svg xmlns="http://www.w3.org/2000/svg" xmlns:xlink="http://www.w3.org/1999/xlink" width="1080" zoomAndPan="magnify" viewBox="0 0 810 1012.49997" height="1350" preserveAspectRatio="xMidYMid meet" version="1.0"><defs><g/></defs><g fill="#515712" fill-opacity="1"><g transform="translate(282.818406, 492.4129)"><g><path d="M 57.8125 -72.921875 C 56.132812 -77.117188 53.257812 -80.414062 49.1875 -82.8125 C 45.113281 -85.207031 40.722656 -86.40625 36.015625 -86.40625 C 31.898438 -86.40625 28.457031 -85.375 25.6875 -83.3125 C 22.914062 -81.257812 20.691406 -78.632812 19.015625 -75.4375 C 17.335938 -72.25 16.054688 -68.847656 15.171875 -65.234375 C 14.296875 -61.628906 13.6875 -58.226562 13.34375 -55.03125 C 13.007812 -51.84375 12.84375 -49.21875 12.84375 -47.15625 C 12.84375 -45.101562 12.84375 -44.078125 12.84375 -44.078125 C 12.84375 -44.078125 12.84375 -43.066406 12.84375 -41.046875 C 12.84375 -39.035156 12.988281 -36.414062 13.28125 -33.1875 C 13.582031 -29.957031 14.148438 -26.554688 14.984375 -22.984375 C 15.828125 -19.421875 17.085938 -16.019531 18.765625 -12.78125 C 20.441406 -9.550781 22.6875 -6.925781 25.5 -4.90625 C 28.3125 -2.894531 31.816406 -1.890625 36.015625 -1.890625 C 39.960938 -1.890625 43.675781 -3.039062 47.15625 -5.34375 C 50.644531 -7.65625 53.796875 -10.867188 56.609375 -14.984375 C 59.421875 -19.097656 61.796875 -23.757812 63.734375 -28.96875 L 63.734375 -15.625 C 62.054688 -12.9375 60 -10.351562 57.5625 -7.875 C 55.125 -5.394531 52.179688 -3.398438 48.734375 -1.890625 C 45.296875 -0.378906 41.054688 0.375 36.015625 0.375 C 29.890625 0.375 24.769531 -0.691406 20.65625 -2.828125 C 16.539062 -4.972656 13.222656 -7.703125 10.703125 -11.015625 C 8.179688 -14.335938 6.269531 -17.882812 4.96875 -21.65625 C 3.664062 -25.4375 2.785156 -28.984375 2.328125 -32.296875 C 1.867188 -35.617188 1.617188 -38.347656 1.578125 -40.484375 C 1.535156 -42.628906 1.515625 -43.703125 1.515625 -43.703125 C 1.515625 -43.703125 1.535156 -44.789062 1.578125 -46.96875 C 1.617188 -49.15625 1.867188 -51.945312 2.328125 -55.34375 C 2.785156 -58.75 3.664062 -62.363281 4.96875 -66.1875 C 6.269531 -70.007812 8.179688 -73.617188 10.703125 -77.015625 C 13.222656 -80.421875 16.539062 -83.210938 20.65625 -85.390625 C 24.769531 -87.578125 29.890625 -88.671875 36.015625 -88.671875 C 40.210938 -88.671875 44.203125 -88 47.984375 -86.65625 C 51.765625 -85.3125 55.164062 -83.171875 58.1875 -80.234375 C 58.601562 -79.984375 58.898438 -79.859375 59.078125 -79.859375 C 59.660156 -79.859375 60.160156 -80.273438 60.578125 -81.109375 C 61.003906 -81.953125 61.320312 -82.914062 61.53125 -84 C 61.738281 -85.09375 61.90625 -86.0625 62.03125 -86.90625 C 62.15625 -87.75 62.21875 -88.171875 62.21875 -88.171875 L 63.484375 -88.171875 L 63.484375 -53.53125 L 61.21875 -53.53125 C 61.21875 -53.53125 61.175781 -54.179688 61.09375 -55.484375 C 61.007812 -56.785156 60.835938 -58.421875 60.578125 -60.390625 C 60.328125 -62.367188 59.96875 -64.488281 59.5 -66.75 C 59.039062 -69.019531 58.476562 -71.078125 57.8125 -72.921875 Z M 57.8125 -72.921875 "/></g></g></g><g fill="#515712" fill-opacity="1"><g transform="translate(346.422871, 492.4129)"><g><path d="M 47.734375 -26.078125 L 49 -26.078125 L 49 0 L 1.640625 0 L 1.640625 -1.265625 C 1.640625 -1.265625 2.035156 -1.390625 2.828125 -1.640625 C 3.628906 -1.890625 4.53125 -2.367188 5.53125 -3.078125 C 6.539062 -3.796875 7.445312 -4.890625 8.25 -6.359375 C 9.050781 -7.828125 9.453125 -9.78125 9.453125 -12.21875 L 9.453125 -75.953125 C 9.453125 -78.390625 9.050781 -80.320312 8.25 -81.75 C 7.445312 -83.175781 6.539062 -84.265625 5.53125 -85.015625 C 4.53125 -85.773438 3.628906 -86.28125 2.828125 -86.53125 C 2.035156 -86.78125 1.640625 -86.90625 1.640625 -86.90625 L 1.640625 -88.171875 L 28.21875 -88.171875 L 28.21875 -86.90625 C 28.21875 -86.90625 27.585938 -86.628906 26.328125 -86.078125 C 25.066406 -85.535156 23.785156 -84.550781 22.484375 -83.125 C 21.179688 -81.695312 20.53125 -79.640625 20.53125 -76.953125 L 20.53125 -2.265625 L 36.78125 -2.265625 C 38.957031 -2.265625 40.738281 -3.0625 42.125 -4.65625 C 43.507812 -6.25 44.582031 -8.222656 45.34375 -10.578125 C 46.101562 -12.929688 46.648438 -15.300781 46.984375 -17.6875 C 47.316406 -20.082031 47.523438 -22.078125 47.609375 -23.671875 C 47.691406 -25.273438 47.734375 -26.078125 47.734375 -26.078125 Z M 47.734375 -26.078125 "/></g></g></g><g fill="#515712" fill-opacity="1"><g transform="translate(395.291225, 492.4129)"><g><path d="M 37.03125 0.75 C 31.15625 0.75 26.410156 -0.109375 22.796875 -1.828125 C 19.179688 -3.546875 16.429688 -5.6875 14.546875 -8.25 C 12.660156 -10.8125 11.359375 -13.375 10.640625 -15.9375 C 9.929688 -18.5 9.535156 -20.640625 9.453125 -22.359375 C 9.367188 -24.078125 9.328125 -24.9375 9.328125 -24.9375 L 9.328125 -75.953125 C 9.328125 -78.390625 8.925781 -80.320312 8.125 -81.75 C 7.320312 -83.175781 6.414062 -84.265625 5.40625 -85.015625 C 4.40625 -85.773438 3.503906 -86.28125 2.703125 -86.53125 C 1.910156 -86.78125 1.515625 -86.90625 1.515625 -86.90625 L 1.515625 -88.171875 L 28.21875 -88.171875 L 28.21875 -86.90625 C 28.21875 -86.90625 27.816406 -86.78125 27.015625 -86.53125 C 26.222656 -86.28125 25.320312 -85.773438 24.3125 -85.015625 C 23.300781 -84.265625 22.394531 -83.175781 21.59375 -81.75 C 20.800781 -80.320312 20.40625 -78.390625 20.40625 -75.953125 L 20.40625 -22.671875 C 20.40625 -18.972656 21.054688 -15.507812 22.359375 -12.28125 C 23.660156 -9.050781 25.546875 -6.445312 28.015625 -4.46875 C 30.492188 -2.5 33.5 -1.515625 37.03125 -1.515625 C 40.894531 -1.515625 44.082031 -2.457031 46.59375 -4.34375 C 49.113281 -6.226562 51.085938 -8.679688 52.515625 -11.703125 C 53.941406 -14.734375 55.015625 -17.945312 55.734375 -21.34375 C 56.453125 -24.75 56.894531 -28.003906 57.0625 -31.109375 L 57.0625 -75.953125 C 57.0625 -78.390625 56.660156 -80.320312 55.859375 -81.75 C 55.054688 -83.175781 54.148438 -84.265625 53.140625 -85.015625 C 52.140625 -85.773438 51.238281 -86.28125 50.4375 -86.53125 C 49.644531 -86.78125 49.25 -86.90625 49.25 -86.90625 L 49.25 -88.171875 L 69.28125 -88.171875 L 69.28125 -86.90625 C 69.28125 -86.90625 68.878906 -86.78125 68.078125 -86.53125 C 67.273438 -86.28125 66.347656 -85.773438 65.296875 -85.015625 C 64.253906 -84.265625 63.332031 -83.175781 62.53125 -81.75 C 61.738281 -80.320312 61.34375 -78.390625 61.34375 -75.953125 L 61.34375 -30.734375 C 61.34375 -30.734375 61.320312 -29.976562 61.28125 -28.46875 C 61.238281 -26.957031 61.046875 -25.003906 60.703125 -22.609375 C 60.367188 -20.210938 59.738281 -17.671875 58.8125 -14.984375 C 57.894531 -12.296875 56.550781 -9.753906 54.78125 -7.359375 C 53.019531 -4.972656 50.691406 -3.023438 47.796875 -1.515625 C 44.898438 -0.00390625 41.3125 0.75 37.03125 0.75 Z M 37.03125 0.75 "/></g></g></g><g fill="#515712" fill-opacity="1"><g transform="translate(464.311519, 492.4129)"><g><path d="M 50.125 -25.3125 L 50.125 -25.5625 C 50.125 -28.925781 49.597656 -31.695312 48.546875 -33.875 C 47.503906 -36.0625 46.179688 -37.765625 44.578125 -38.984375 C 42.984375 -40.203125 41.390625 -41.082031 39.796875 -41.625 C 38.203125 -42.175781 36.878906 -42.515625 35.828125 -42.640625 C 34.785156 -42.765625 34.265625 -42.828125 34.265625 -42.828125 L 20.28125 -42.828125 L 20.28125 -2.265625 L 34 -2.265625 C 37.195312 -2.265625 39.820312 -2.894531 41.875 -4.15625 C 43.9375 -5.414062 45.53125 -7.03125 46.65625 -9 C 47.789062 -10.976562 48.609375 -13.035156 49.109375 -15.171875 C 49.617188 -17.316406 49.914062 -19.3125 50 -21.15625 C 50.082031 -23.007812 50.125 -24.394531 50.125 -25.3125 Z M 29.59375 -86.03125 L 20.28125 -86.03125 L 20.28125 -45.09375 L 31.359375 -45.09375 C 34.804688 -45.09375 37.578125 -45.867188 39.671875 -47.421875 C 41.773438 -48.972656 43.367188 -50.878906 44.453125 -53.140625 C 45.546875 -55.410156 46.300781 -57.660156 46.71875 -59.890625 C 47.144531 -62.117188 47.378906 -64.007812 47.421875 -65.5625 C 47.460938 -67.113281 47.484375 -67.890625 47.484375 -67.890625 L 47.484375 -68.015625 C 47.484375 -71.710938 46.875 -74.710938 45.65625 -77.015625 C 44.4375 -79.328125 42.945312 -81.113281 41.1875 -82.375 C 39.425781 -83.632812 37.660156 -84.515625 35.890625 -85.015625 C 34.128906 -85.523438 32.640625 -85.820312 31.421875 -85.90625 C 30.203125 -85.988281 29.59375 -86.03125 29.59375 -86.03125 Z M 41.4375 -44.46875 C 47.738281 -43.125 52.628906 -40.914062 56.109375 -37.84375 C 59.597656 -34.78125 61.34375 -29.972656 61.34375 -23.421875 L 61.34375 -23.296875 C 61.34375 -21.117188 61.003906 -18.707031 60.328125 -16.0625 C 59.660156 -13.414062 58.460938 -10.875 56.734375 -8.4375 C 55.015625 -6 52.582031 -3.984375 49.4375 -2.390625 C 46.289062 -0.796875 42.195312 0 37.15625 0 L 1.515625 0 L 1.515625 -1.265625 C 1.515625 -1.265625 2.125 -1.390625 3.34375 -1.640625 C 4.5625 -1.890625 5.796875 -2.539062 7.046875 -3.59375 C 8.304688 -4.644531 9.066406 -6.382812 9.328125 -8.8125 L 9.328125 -79.34375 C 9.066406 -81.78125 8.304688 -83.523438 7.046875 -84.578125 C 5.796875 -85.628906 4.5625 -86.28125 3.34375 -86.53125 C 2.125 -86.78125 1.515625 -86.90625 1.515625 -86.90625 L 1.515625 -88.171875 L 31.109375 -88.171875 C 36.234375 -88.171875 40.515625 -87.476562 43.953125 -86.09375 C 47.398438 -84.707031 50.128906 -82.898438 52.140625 -80.671875 C 54.160156 -78.441406 55.609375 -76.046875 56.484375 -73.484375 C 57.367188 -70.929688 57.851562 -68.476562 57.9375 -66.125 L 57.9375 -66 C 58.101562 -62.550781 57.722656 -59.273438 56.796875 -56.171875 C 55.878906 -53.066406 54.179688 -50.460938 51.703125 -48.359375 C 49.222656 -46.265625 45.800781 -44.96875 41.4375 -44.46875 Z M 41.4375 -44.46875 "/></g></g></g><g fill="#515712" fill-opacity="1"><g transform="translate(174.802096, 540.857871)"><g><path d="M -49.609375 66.9375 C -55.484375 66.9375 -58.421875 65.09375 -58.421875 61.40625 C -58.421875 58.425781 -56.550781 54.644531 -52.8125 50.0625 C -49.082031 45.476562 -43.851562 40.519531 -37.125 35.1875 C -30.40625 29.851562 -22.507812 24.644531 -13.4375 19.5625 C -4.375 14.488281 5.507812 9.929688 16.21875 5.890625 C 26.925781 1.859375 38.101562 -1.148438 49.75 -3.140625 C 57.125 -9.117188 64.195312 -14.820312 70.96875 -20.25 C 77.75 -25.675781 83.925781 -30.429688 89.5 -34.515625 C 89 -34.210938 87.351562 -33.3125 84.5625 -31.8125 C 81.78125 -30.320312 78.269531 -28.554688 74.03125 -26.515625 C 69.800781 -24.472656 65.144531 -22.457031 60.0625 -20.46875 C 54.988281 -18.476562 49.859375 -16.8125 44.671875 -15.46875 C 39.492188 -14.125 34.613281 -13.453125 30.03125 -13.453125 C 20.375 -13.453125 13.253906 -15.367188 8.671875 -19.203125 C 4.085938 -23.035156 1.796875 -27.988281 1.796875 -34.0625 C 1.796875 -39.84375 3.710938 -46.171875 7.546875 -53.046875 C 11.378906 -59.921875 16.957031 -66.742188 24.28125 -73.515625 C 31.601562 -80.285156 40.441406 -86.507812 50.796875 -92.1875 C 61.160156 -97.863281 72.914062 -102.421875 86.0625 -105.859375 C 99.21875 -109.296875 113.5625 -111.015625 129.09375 -111.015625 C 137.664062 -111.015625 144.566406 -110.164062 149.796875 -108.46875 C 155.023438 -106.78125 158.910156 -104.613281 161.453125 -101.96875 C 163.992188 -99.332031 165.460938 -96.472656 165.859375 -93.390625 C 166.648438 -93.785156 167.492188 -94.179688 168.390625 -94.578125 C 169.296875 -94.984375 170.242188 -95.382812 171.234375 -95.78125 C 172.035156 -94.882812 172.4375 -94.285156 172.4375 -93.984375 C 171.738281 -93.679688 170.765625 -93.234375 169.515625 -92.640625 C 168.273438 -92.046875 167.101562 -91.445312 166 -90.84375 C 166 -87.5625 165.078125 -84.425781 163.234375 -81.4375 C 161.398438 -78.445312 159.113281 -75.976562 156.375 -74.03125 C 153.632812 -72.09375 150.769531 -71.125 147.78125 -71.125 C 144.988281 -71.125 143.59375 -72.117188 143.59375 -74.109375 C 143.59375 -76.003906 145.160156 -78.570312 148.296875 -81.8125 C 151.441406 -85.050781 156.203125 -88.363281 162.578125 -91.75 C 162.578125 -95.226562 161.550781 -98.085938 159.5 -100.328125 C 157.457031 -102.578125 154.84375 -104.296875 151.65625 -105.484375 C 148.46875 -106.679688 145.226562 -107.503906 141.9375 -107.953125 C 138.65625 -108.398438 135.722656 -108.625 133.140625 -108.625 C 123.671875 -108.625 114.101562 -107.253906 104.4375 -104.515625 C 94.78125 -101.773438 85.367188 -98.113281 76.203125 -93.53125 C 67.035156 -88.957031 58.46875 -83.828125 50.5 -78.140625 C 42.53125 -72.460938 35.53125 -66.609375 29.5 -60.578125 C 23.476562 -54.554688 18.773438 -48.753906 15.390625 -43.171875 C 12.003906 -37.597656 10.3125 -32.671875 10.3125 -28.390625 C 10.3125 -24.398438 11.976562 -21.234375 15.3125 -18.890625 C 18.65625 -16.554688 23.960938 -15.390625 31.234375 -15.390625 C 35.210938 -15.390625 39.941406 -16.109375 45.421875 -17.546875 C 50.898438 -18.992188 56.675781 -20.910156 62.75 -23.296875 C 68.832031 -25.691406 74.882812 -28.429688 80.90625 -31.515625 C 86.9375 -34.609375 92.539062 -37.847656 97.71875 -41.234375 C 102.894531 -44.628906 107.28125 -47.921875 110.875 -51.109375 L 112.96875 -49.453125 C 109.375 -47.566406 103.46875 -43.410156 95.25 -36.984375 C 87.03125 -30.554688 77.492188 -22.015625 66.640625 -11.359375 L 59.765625 -4.484375 C 65.046875 -5.078125 70.273438 -5.375 75.453125 -5.375 L 85.46875 -5.375 L 84.28125 -0.890625 C 82.976562 -1.390625 80.734375 -1.890625 77.546875 -2.390625 C 74.359375 -2.890625 70.675781 -3.140625 66.5 -3.140625 C 65.195312 -3.140625 63.847656 -3.140625 62.453125 -3.140625 C 61.054688 -3.140625 59.613281 -3.039062 58.125 -2.84375 C 52.75 3.332031 47.019531 9.679688 40.9375 16.203125 C 34.863281 22.734375 28.4375 29.007812 21.65625 35.03125 C 14.882812 41.0625 7.738281 46.46875 0.21875 51.25 C -7.300781 56.03125 -15.191406 59.835938 -23.453125 62.671875 C -31.722656 65.515625 -40.441406 66.9375 -49.609375 66.9375 Z M -51.703125 64.546875 C -48.117188 64.546875 -43.609375 63.273438 -38.171875 60.734375 C -32.742188 58.203125 -26.664062 54.71875 -19.9375 50.28125 C -13.21875 45.84375 -6.125 40.8125 1.34375 35.1875 C 8.8125 29.5625 16.457031 23.632812 24.28125 17.40625 C 32.101562 11.175781 39.796875 4.972656 47.359375 -1.203125 C 36.003906 0.890625 25.125 3.976562 14.71875 8.0625 C 4.3125 12.144531 -5.25 16.675781 -13.96875 21.65625 C -22.6875 26.644531 -30.28125 31.675781 -36.75 36.75 C -43.226562 41.832031 -48.234375 46.488281 -51.765625 50.71875 C -55.304688 54.957031 -57.078125 58.320312 -57.078125 60.8125 C -57.078125 63.300781 -55.285156 64.546875 -51.703125 64.546875 Z M -51.703125 64.546875 "/></g></g></g><g fill="#515712" fill-opacity="1"><g transform="translate(273.719687, 540.857871)"><g><path d="M 7.625 4.328125 C 4.332031 4.328125 2.6875 2.140625 2.6875 -2.234375 C 2.6875 -4.628906 3.582031 -7.171875 5.375 -9.859375 C 7.164062 -12.546875 9.457031 -15.257812 12.25 -18 C 15.039062 -20.738281 18.03125 -23.425781 21.21875 -26.0625 C 24.40625 -28.707031 27.390625 -31.203125 30.171875 -33.546875 C 32.960938 -35.890625 35.253906 -37.976562 37.046875 -39.8125 C 38.847656 -41.65625 39.75 -43.128906 39.75 -44.234375 C 39.75 -44.722656 39.648438 -45.566406 39.453125 -46.765625 C 39.253906 -47.960938 39.050781 -49.257812 38.84375 -50.65625 C 37.75 -49.363281 35.78125 -47.367188 32.9375 -44.671875 C 30.101562 -41.984375 26.046875 -38.570312 20.765625 -34.4375 C 15.484375 -30.300781 8.5625 -25.445312 0 -19.875 L -1.046875 -20.765625 C 8.117188 -26.742188 15.414062 -31.847656 20.84375 -36.078125 C 26.269531 -40.316406 30.351562 -43.753906 33.09375 -46.390625 C 35.832031 -49.035156 37.703125 -50.953125 38.703125 -52.140625 L 38.703125 -54.984375 C 38.703125 -58.078125 39.519531 -60.34375 41.15625 -61.78125 C 42.800781 -63.226562 44.421875 -63.953125 46.015625 -63.953125 C 48.109375 -63.953125 49.15625 -63.054688 49.15625 -61.265625 C 49.15625 -59.671875 48.257812 -58.148438 46.46875 -56.703125 C 44.675781 -55.253906 43.179688 -54.285156 41.984375 -53.796875 C 41.191406 -53.390625 40.796875 -52.789062 40.796875 -52 C 40.796875 -49.8125 41.019531 -47.59375 41.46875 -45.34375 C 41.914062 -43.101562 42.140625 -40.835938 42.140625 -38.546875 C 42.140625 -35.660156 40.96875 -32.769531 38.625 -29.875 C 36.28125 -26.988281 33.390625 -24.125 29.953125 -21.28125 C 26.515625 -18.445312 23.050781 -15.734375 19.5625 -13.140625 C 16.082031 -10.554688 13.171875 -8.144531 10.828125 -5.90625 C 8.492188 -3.664062 7.328125 -1.644531 7.328125 0.15625 C 7.328125 1.75 8.070312 2.546875 9.5625 2.546875 C 11.457031 2.546875 14.347656 1.425781 18.234375 -0.8125 C 22.117188 -3.0625 26.847656 -6.023438 32.421875 -9.703125 C 38.003906 -13.390625 44.179688 -17.476562 50.953125 -21.96875 L 51.546875 -20.765625 C 44.972656 -16.378906 38.820312 -12.269531 33.09375 -8.4375 C 27.363281 -4.601562 22.332031 -1.519531 18 0.8125 C 13.664062 3.15625 10.207031 4.328125 7.625 4.328125 Z M 7.625 4.328125 "/></g></g></g><g fill="#515712" fill-opacity="1"><g transform="translate(323.925596, 540.857871)"><g><path d="M -5.53125 2.84375 C -8.71875 2.84375 -10.3125 1 -10.3125 -2.6875 C -10.3125 -5.082031 -9.488281 -7.992188 -7.84375 -11.421875 C -6.195312 -14.859375 -3.726562 -18.394531 -0.4375 -22.03125 C 2.84375 -25.675781 6.921875 -29.066406 11.796875 -32.203125 C 16.679688 -35.335938 22.410156 -37.875 28.984375 -39.8125 C 35.554688 -41.757812 42.929688 -42.734375 51.109375 -42.734375 C 52.203125 -42.734375 53.34375 -42.707031 54.53125 -42.65625 C 55.726562 -42.601562 57.023438 -42.578125 58.421875 -42.578125 C 60.117188 -42.578125 61.910156 -42.628906 63.796875 -42.734375 C 65.691406 -42.835938 67.734375 -43.035156 69.921875 -43.328125 L 70.234375 -42.890625 C 68.140625 -41.085938 65.445312 -38.539062 62.15625 -35.25 C 58.875 -31.96875 55.210938 -28.285156 51.171875 -24.203125 C 47.140625 -20.117188 42.882812 -15.882812 38.40625 -11.5 C 33.425781 -6.519531 30.9375 -2.984375 30.9375 -0.890625 C 30.9375 0.00390625 31.484375 0.453125 32.578125 0.453125 C 33.566406 0.453125 34.984375 0.078125 36.828125 -0.671875 C 38.671875 -1.421875 40.890625 -2.59375 43.484375 -4.1875 C 46.972656 -6.476562 51.03125 -9.164062 55.65625 -12.25 C 60.289062 -15.34375 65.195312 -18.582031 70.375 -21.96875 L 70.96875 -20.765625 C 65.789062 -17.378906 60.9375 -14.140625 56.40625 -11.046875 C 51.875 -7.960938 47.71875 -5.226562 43.9375 -2.84375 C 41.34375 -1.25 38.820312 -0.03125 36.375 0.8125 C 33.9375 1.664062 31.820312 2.09375 30.03125 2.09375 C 26.144531 2.09375 24.203125 0.597656 24.203125 -2.390625 C 24.203125 -3.785156 24.75 -5.53125 25.84375 -7.625 C 26.945312 -9.71875 28.691406 -12.054688 31.078125 -14.640625 L 35.265625 -19.125 C 32.078125 -16.738281 28.585938 -14.273438 24.796875 -11.734375 C 21.015625 -9.191406 17.253906 -6.820312 13.515625 -4.625 C 9.785156 -2.4375 6.25 -0.644531 2.90625 0.75 C -0.425781 2.144531 -3.238281 2.84375 -5.53125 2.84375 Z M -3.890625 1.203125 C -1.796875 1.203125 1.09375 0.332031 4.78125 -1.40625 C 8.46875 -3.15625 12.453125 -5.398438 16.734375 -8.140625 C 21.015625 -10.878906 25.269531 -13.71875 29.5 -16.65625 C 33.738281 -19.59375 37.453125 -22.257812 40.640625 -24.65625 C 43.234375 -27.25 45.847656 -29.863281 48.484375 -32.5 C 51.128906 -35.132812 53.742188 -37.75 56.328125 -40.34375 C 56.328125 -40.445312 56.351562 -40.519531 56.40625 -40.5625 C 56.457031 -40.613281 56.484375 -40.691406 56.484375 -40.796875 C 56.484375 -41.191406 56.179688 -41.390625 55.578125 -41.390625 L 49.75 -41.390625 C 46.269531 -41.390625 42.488281 -40.566406 38.40625 -38.921875 C 34.320312 -37.273438 30.210938 -35.082031 26.078125 -32.34375 C 21.941406 -29.601562 17.976562 -26.640625 14.1875 -23.453125 C 10.40625 -20.265625 7.046875 -17.125 4.109375 -14.03125 C 1.171875 -10.945312 -1.164062 -8.160156 -2.90625 -5.671875 C -4.65625 -3.179688 -5.53125 -1.34375 -5.53125 -0.15625 C -5.53125 0.75 -4.984375 1.203125 -3.890625 1.203125 Z M -3.890625 1.203125 "/></g></g></g><g fill="#515712" fill-opacity="1"><g transform="translate(393.556404, 540.857871)"><g><path d="M 36.453125 4.328125 C 34.859375 4.328125 33.539062 3.703125 32.5 2.453125 C 31.457031 1.210938 30.9375 -0.550781 30.9375 -2.84375 C 30.9375 -4.53125 31.78125 -6.519531 33.46875 -8.8125 C 35.164062 -11.101562 37.359375 -13.539062 40.046875 -16.125 C 42.734375 -18.71875 45.570312 -21.285156 48.5625 -23.828125 C 51.550781 -26.367188 54.390625 -28.785156 57.078125 -31.078125 C 59.765625 -33.367188 61.953125 -35.335938 63.640625 -36.984375 C 65.335938 -38.628906 66.1875 -39.800781 66.1875 -40.5 C 66.1875 -40.789062 65.941406 -40.9375 65.453125 -40.9375 C 63.648438 -40.9375 60.878906 -39.988281 57.140625 -38.09375 C 53.410156 -36.207031 49.226562 -33.796875 44.59375 -30.859375 C 39.96875 -27.921875 35.3125 -24.832031 30.625 -21.59375 C 25.945312 -18.351562 21.71875 -15.335938 17.9375 -12.546875 C 13.945312 -8.265625 9.164062 -3.335938 3.59375 2.234375 C 1.09375 2.234375 -1.421875 2.304688 -3.953125 2.453125 C -6.492188 2.609375 -8.515625 2.785156 -10.015625 2.984375 L -10.453125 2.09375 C -8.859375 0.894531 -6.664062 -0.820312 -3.875 -3.0625 C -1.09375 -5.300781 1.960938 -7.863281 5.296875 -10.75 C 8.640625 -13.644531 12.003906 -16.609375 15.390625 -19.640625 C 18.773438 -22.679688 21.863281 -25.617188 24.65625 -28.453125 C 27.445312 -31.296875 29.710938 -33.8125 31.453125 -36 C 33.191406 -38.195312 34.0625 -39.84375 34.0625 -40.9375 C 34.0625 -41.4375 33.765625 -41.6875 33.171875 -41.6875 C 32.671875 -41.6875 31.5 -41.113281 29.65625 -39.96875 C 27.8125 -38.820312 25.59375 -37.375 23 -35.625 C 20.414062 -33.882812 17.828125 -32.117188 15.234375 -30.328125 C 12.648438 -28.535156 10.363281 -26.941406 8.375 -25.546875 L 0 -19.875 L -1.046875 -20.765625 L 8.0625 -26.890625 C 12.25 -29.785156 16.285156 -32.550781 20.171875 -35.1875 C 24.054688 -37.832031 27.539062 -40.023438 30.625 -41.765625 C 33.71875 -43.503906 36.109375 -44.375 37.796875 -44.375 C 38.898438 -44.375 39.648438 -44.070312 40.046875 -43.46875 C 40.441406 -42.875 40.640625 -42.179688 40.640625 -41.390625 C 40.640625 -39.796875 39.316406 -37.179688 36.671875 -33.546875 C 34.035156 -29.910156 29.332031 -24.503906 22.5625 -17.328125 C 26.34375 -20.023438 30.398438 -22.84375 34.734375 -25.78125 C 39.066406 -28.71875 43.300781 -31.453125 47.4375 -33.984375 C 51.570312 -36.523438 55.304688 -38.59375 58.640625 -40.1875 C 61.984375 -41.78125 64.550781 -42.578125 66.34375 -42.578125 C 68.832031 -42.578125 70.078125 -41.4375 70.078125 -39.15625 C 70.078125 -36.257812 68.929688 -33.242188 66.640625 -30.109375 C 64.347656 -26.972656 61.53125 -23.859375 58.1875 -20.765625 C 54.851562 -17.679688 51.492188 -14.769531 48.109375 -12.03125 C 44.722656 -9.289062 41.882812 -6.847656 39.59375 -4.703125 C 37.300781 -2.566406 36.15625 -0.945312 36.15625 0.15625 C 36.15625 1.75 36.90625 2.546875 38.40625 2.546875 C 40.289062 2.546875 43.175781 1.425781 47.0625 -0.8125 C 50.945312 -3.0625 55.675781 -6.023438 61.25 -9.703125 C 66.832031 -13.390625 73.015625 -17.476562 79.796875 -21.96875 L 80.390625 -20.765625 C 73.816406 -16.378906 67.664062 -12.269531 61.9375 -8.4375 C 56.207031 -4.601562 51.175781 -1.519531 46.84375 0.8125 C 42.507812 3.15625 39.046875 4.328125 36.453125 4.328125 Z M 36.453125 4.328125 "/></g></g></g><g fill="#515712" fill-opacity="1"><g transform="translate(472.600822, 540.857871)"><g><path d="M -5.53125 2.84375 C -8.71875 2.84375 -10.3125 1 -10.3125 -2.6875 C -10.3125 -5.082031 -9.488281 -7.992188 -7.84375 -11.421875 C -6.195312 -14.859375 -3.726562 -18.394531 -0.4375 -22.03125 C 2.84375 -25.675781 6.921875 -29.066406 11.796875 -32.203125 C 16.679688 -35.335938 22.410156 -37.875 28.984375 -39.8125 C 35.554688 -41.757812 42.929688 -42.734375 51.109375 -42.734375 C 52.097656 -42.734375 53.289062 -42.707031 54.6875 -42.65625 C 56.082031 -42.601562 57.578125 -42.476562 59.171875 -42.28125 C 67.441406 -49.65625 75.382812 -56.554688 83 -62.984375 C 90.625 -69.410156 97.222656 -75.410156 102.796875 -80.984375 C 105.285156 -80.984375 107.953125 -81.082031 110.796875 -81.28125 C 113.640625 -81.476562 115.957031 -81.628906 117.75 -81.734375 L 118.1875 -80.84375 C 113.40625 -77.351562 107.925781 -73.039062 101.75 -67.90625 C 95.570312 -62.78125 89.046875 -57.253906 82.171875 -51.328125 C 75.304688 -45.398438 68.507812 -39.472656 61.78125 -33.546875 C 55.0625 -27.617188 48.765625 -22.066406 42.890625 -16.890625 C 41.691406 -15.785156 40.144531 -14.285156 38.25 -12.390625 C 36.351562 -10.503906 34.679688 -8.566406 33.234375 -6.578125 C 31.796875 -4.585938 31.078125 -2.941406 31.078125 -1.640625 C 31.078125 -0.046875 31.972656 0.75 33.765625 0.75 C 35.554688 0.75 37.769531 0.148438 40.40625 -1.046875 C 43.050781 -2.242188 45.070312 -3.289062 46.46875 -4.1875 C 49.957031 -6.476562 54.015625 -9.164062 58.640625 -12.25 C 63.273438 -15.34375 68.179688 -18.582031 73.359375 -21.96875 L 73.96875 -20.765625 C 68.78125 -17.378906 63.945312 -14.117188 59.46875 -10.984375 C 54.988281 -7.847656 50.804688 -5.132812 46.921875 -2.84375 C 44.722656 -1.539062 42.253906 -0.316406 39.515625 0.828125 C 36.773438 1.972656 34.363281 2.546875 32.28125 2.546875 C 30.78125 2.546875 29.554688 2.171875 28.609375 1.421875 C 27.660156 0.671875 27.1875 -0.597656 27.1875 -2.390625 C 27.1875 -4.679688 28.035156 -7.394531 29.734375 -10.53125 C 31.429688 -13.664062 33.222656 -16.484375 35.109375 -18.984375 C 31.921875 -16.585938 28.457031 -14.117188 24.71875 -11.578125 C 20.988281 -9.035156 17.253906 -6.671875 13.515625 -4.484375 C 9.785156 -2.296875 6.25 -0.53125 2.90625 0.8125 C -0.425781 2.164062 -3.238281 2.84375 -5.53125 2.84375 Z M -3.890625 1.203125 C -1.796875 1.203125 0.96875 0.40625 4.40625 -1.1875 C 7.84375 -2.789062 11.601562 -4.859375 15.6875 -7.390625 C 19.769531 -9.929688 23.828125 -12.617188 27.859375 -15.453125 C 31.898438 -18.296875 35.5625 -20.914062 38.84375 -23.3125 C 41.9375 -26.300781 45 -29.238281 48.03125 -32.125 C 51.070312 -35.007812 54.140625 -37.800781 57.234375 -40.5 C 57.234375 -40.789062 56.882812 -41.007812 56.1875 -41.15625 C 55.488281 -41.3125 53.34375 -41.390625 49.75 -41.390625 C 46.269531 -41.390625 42.488281 -40.566406 38.40625 -38.921875 C 34.320312 -37.273438 30.210938 -35.082031 26.078125 -32.34375 C 21.941406 -29.601562 17.976562 -26.640625 14.1875 -23.453125 C 10.40625 -20.265625 7.046875 -17.125 4.109375 -14.03125 C 1.171875 -10.945312 -1.164062 -8.160156 -2.90625 -5.671875 C -4.65625 -3.179688 -5.53125 -1.34375 -5.53125 -0.15625 C -5.53125 0.75 -4.984375 1.203125 -3.890625 1.203125 Z M -3.890625 1.203125 "/></g></g></g><g fill="#515712" fill-opacity="1"><g transform="translate(545.070653, 540.857871)"><g><path d="M 36.015625 -51.40625 L 35.109375 -51.703125 C 36.003906 -53.585938 37.023438 -55.703125 38.171875 -58.046875 C 39.316406 -60.390625 40.191406 -62.0625 40.796875 -63.0625 C 41.296875 -63.65625 41.84375 -64 42.4375 -64.09375 C 43.03125 -64.195312 43.476562 -64.25 43.78125 -64.25 C 45.175781 -64.25 47.019531 -64.195312 49.3125 -64.09375 C 51.601562 -64 53.546875 -63.851562 55.140625 -63.65625 L 55.4375 -62.609375 C 53.039062 -61.210938 50.421875 -59.691406 47.578125 -58.046875 C 44.742188 -56.398438 42.253906 -54.953125 40.109375 -53.703125 C 37.972656 -52.460938 36.609375 -51.695312 36.015625 -51.40625 Z M -6.28125 3.28125 C -7.875 3.28125 -9.191406 2.859375 -10.234375 2.015625 C -11.273438 1.171875 -11.796875 -0.296875 -11.796875 -2.390625 C -11.796875 -3.285156 -11.421875 -4.578125 -10.671875 -6.265625 C -9.929688 -7.960938 -8.460938 -10.332031 -6.265625 -13.375 C -4.078125 -16.414062 -0.867188 -20.347656 3.359375 -25.171875 C 7.597656 -30.003906 13.253906 -36.007812 20.328125 -43.1875 C 22.816406 -43.1875 25.328125 -43.285156 27.859375 -43.484375 C 30.398438 -43.679688 32.421875 -43.832031 33.921875 -43.9375 L 34.359375 -43.03125 C 32.472656 -41.632812 29.859375 -39.492188 26.515625 -36.609375 C 23.179688 -33.722656 19.617188 -30.484375 15.828125 -26.890625 C 12.046875 -23.304688 8.460938 -19.742188 5.078125 -16.203125 C 1.691406 -12.671875 -1.09375 -9.582031 -3.28125 -6.9375 C -5.476562 -4.300781 -6.578125 -2.4375 -6.578125 -1.34375 C -6.578125 0.550781 -5.628906 1.5 -3.734375 1.5 C -2.046875 1.5 0.09375 0.851562 2.6875 -0.4375 C 5.28125 -1.738281 7.519531 -2.988281 9.40625 -4.1875 C 12.894531 -6.476562 16.957031 -9.164062 21.59375 -12.25 C 26.226562 -15.34375 31.132812 -18.582031 36.3125 -21.96875 L 36.90625 -20.765625 C 31.726562 -17.378906 26.875 -14.140625 22.34375 -11.046875 C 17.8125 -7.960938 13.648438 -5.226562 9.859375 -2.84375 C 8.066406 -1.75 5.578125 -0.457031 2.390625 1.03125 C -0.796875 2.53125 -3.6875 3.28125 -6.28125 3.28125 Z M -6.28125 3.28125 "/></g></g></g><g fill="#515712" fill-opacity="1"><g transform="translate(580.48375, 540.857871)"><g><path d="M 0.296875 3.59375 C -5.578125 3.59375 -9.734375 2.347656 -12.171875 -0.140625 C -14.617188 -2.640625 -15.84375 -5.429688 -15.84375 -8.515625 C -15.84375 -11.003906 -15.242188 -13.421875 -14.046875 -15.765625 C -12.847656 -18.109375 -11.253906 -20.050781 -9.265625 -21.59375 C -7.273438 -23.132812 -5.132812 -23.90625 -2.84375 -23.90625 C -0.445312 -23.90625 1.347656 -23.304688 2.546875 -22.109375 C 7.816406 -25.296875 12.671875 -28.65625 17.109375 -32.1875 C 21.546875 -35.726562 25.429688 -39.09375 28.765625 -42.28125 C 32.097656 -45.46875 34.660156 -48.109375 36.453125 -50.203125 C 37.148438 -50.898438 38 -52.019531 39 -53.5625 C 40 -55.113281 40.847656 -56.484375 41.546875 -57.671875 L 46.921875 -55.4375 C 44.523438 -54.9375 42.851562 -53.585938 41.90625 -51.390625 C 40.96875 -49.203125 40.347656 -46.460938 40.046875 -43.171875 C 39.742188 -39.890625 39.316406 -36.332031 38.765625 -32.5 C 38.222656 -28.664062 37.203125 -24.753906 35.703125 -20.765625 C 34.210938 -16.785156 31.820312 -13 28.53125 -9.40625 C 25.25 -5.820312 20.617188 -2.738281 14.640625 -0.15625 C 17.234375 -0.75 21.019531 -2.09375 26 -4.1875 C 30.976562 -6.28125 36.207031 -9.164062 41.6875 -12.84375 L 55.4375 -21.96875 L 56.03125 -20.765625 L 42.4375 -11.65625 C 35.457031 -7.070312 28.332031 -3.382812 21.0625 -0.59375 C 13.789062 2.195312 6.867188 3.59375 0.296875 3.59375 Z M -5.078125 0.453125 C 0.296875 0.453125 5.148438 -0.960938 9.484375 -3.796875 C 13.816406 -6.640625 17.625 -10.253906 20.90625 -14.640625 C 24.195312 -19.023438 27.015625 -23.582031 29.359375 -28.3125 C 31.703125 -33.039062 33.570312 -37.375 34.96875 -41.3125 C 36.363281 -45.25 37.304688 -48.113281 37.796875 -49.90625 C 31.421875 -43.132812 25.269531 -37.378906 19.34375 -32.640625 C 13.414062 -27.910156 8.113281 -24.003906 3.4375 -20.921875 C 3.738281 -20.523438 3.890625 -20.023438 3.890625 -19.421875 C 3.890625 -17.734375 3.164062 -16.210938 1.71875 -14.859375 C 0.269531 -13.515625 -1.492188 -12.492188 -3.578125 -11.796875 C -5.671875 -11.109375 -7.765625 -10.765625 -9.859375 -10.765625 C -10.554688 -10.765625 -11.253906 -10.8125 -11.953125 -10.90625 C -12.648438 -11.007812 -13.296875 -11.160156 -13.890625 -11.359375 C -14.191406 -10.359375 -14.34375 -9.410156 -14.34375 -8.515625 C -14.34375 -6.421875 -13.769531 -4.703125 -12.625 -3.359375 C -11.476562 -2.015625 -10.179688 -1.039062 -8.734375 -0.4375 C -7.296875 0.15625 -6.078125 0.453125 -5.078125 0.453125 Z M -5.078125 0.453125 "/></g></g></g></svg>