<svg xmlns="http://www.w3.org/2000/svg" xmlns:xlink="http://www.w3.org/1999/xlink" width="2000" zoomAndPan="magnify" viewBox="0 0 1500 1499.999933" height="2000" preserveAspectRatio="xMidYMid meet" version="1.0"><defs><g/><clipPath id="344ffff98f"><rect x="0" width="703" y="0" height="363"/></clipPath><clipPath id="8adfc31297"><path d="M 0 389 L 665 389 L 665 903 L 0 903 Z M 0 389 " clip-rule="nonzero"/></clipPath><clipPath id="adea7baab6"><rect x="0" width="1500" y="0" height="1215"/></clipPath></defs><g transform="matrix(1, 0, 0, 1, 476, 484)"><g clip-path="url(#344ffff98f)"><g fill="#515712" fill-opacity="1"><g transform="translate(2.061629, 269.604793)"><g><path d="M 166.1875 -209.640625 C 161.363281 -221.703125 153.097656 -231.171875 141.390625 -238.046875 C 129.679688 -244.929688 117.066406 -248.375 103.546875 -248.375 C 91.722656 -248.375 81.828125 -245.414062 73.859375 -239.5 C 65.890625 -233.59375 59.492188 -226.050781 54.671875 -216.875 C 49.847656 -207.695312 46.164062 -197.921875 43.625 -187.546875 C 41.09375 -177.171875 39.34375 -167.394531 38.375 -158.21875 C 37.414062 -149.050781 36.9375 -141.507812 36.9375 -135.59375 C 36.9375 -129.675781 36.9375 -126.71875 36.9375 -126.71875 C 36.9375 -126.71875 36.9375 -123.820312 36.9375 -118.03125 C 36.9375 -112.238281 37.359375 -104.695312 38.203125 -95.40625 C 39.046875 -86.113281 40.671875 -76.335938 43.078125 -66.078125 C 45.492188 -55.816406 49.113281 -46.039062 53.9375 -36.75 C 58.769531 -27.457031 65.226562 -19.914062 73.3125 -14.125 C 81.40625 -8.332031 91.484375 -5.4375 103.546875 -5.4375 C 114.890625 -5.4375 125.570312 -8.753906 135.59375 -15.390625 C 145.613281 -22.023438 154.664062 -31.253906 162.75 -43.078125 C 170.832031 -54.910156 177.648438 -68.3125 183.203125 -83.28125 L 183.203125 -44.890625 C 178.378906 -37.171875 172.46875 -29.75 165.46875 -22.625 C 158.46875 -15.507812 150.019531 -9.773438 140.125 -5.421875 C 130.226562 -1.078125 118.035156 1.09375 103.546875 1.09375 C 85.929688 1.09375 71.207031 -1.984375 59.375 -8.140625 C 47.550781 -14.296875 38.015625 -22.140625 30.765625 -31.671875 C 23.523438 -41.210938 18.035156 -51.410156 14.296875 -62.265625 C 10.554688 -73.128906 8.019531 -83.328125 6.6875 -92.859375 C 5.363281 -102.398438 4.640625 -110.25 4.515625 -116.40625 C 4.398438 -122.5625 4.34375 -125.640625 4.34375 -125.640625 C 4.34375 -125.640625 4.398438 -128.773438 4.515625 -135.046875 C 4.640625 -141.328125 5.363281 -149.351562 6.6875 -159.125 C 8.019531 -168.90625 10.554688 -179.285156 14.296875 -190.265625 C 18.035156 -201.242188 23.523438 -211.617188 30.765625 -221.390625 C 38.015625 -231.171875 47.550781 -239.195312 59.375 -245.46875 C 71.207031 -251.75 85.929688 -254.890625 103.546875 -254.890625 C 115.617188 -254.890625 127.082031 -252.957031 137.9375 -249.09375 C 148.800781 -245.238281 158.578125 -239.085938 167.265625 -230.640625 C 168.472656 -229.910156 169.320312 -229.546875 169.8125 -229.546875 C 171.5 -229.546875 172.945312 -230.75 174.15625 -233.15625 C 175.363281 -235.570312 176.265625 -238.347656 176.859375 -241.484375 C 177.460938 -244.628906 177.945312 -247.40625 178.3125 -249.8125 C 178.675781 -252.226562 178.859375 -253.4375 178.859375 -253.4375 L 182.484375 -253.4375 L 182.484375 -153.875 L 175.96875 -153.875 C 175.96875 -153.875 175.84375 -155.742188 175.59375 -159.484375 C 175.351562 -163.222656 174.867188 -167.929688 174.140625 -173.609375 C 173.421875 -179.285156 172.394531 -185.378906 171.0625 -191.890625 C 169.738281 -198.410156 168.113281 -204.328125 166.1875 -209.640625 Z M 166.1875 -209.640625 "/></g></g></g><g fill="#515712" fill-opacity="1"><g transform="translate(184.898401, 269.604793)"><g><path d="M 137.21875 -74.953125 L 140.84375 -74.953125 L 140.84375 0 L 4.703125 0 L 4.703125 -3.625 C 4.703125 -3.625 5.847656 -3.984375 8.140625 -4.703125 C 10.441406 -5.429688 13.039062 -6.820312 15.9375 -8.875 C 18.832031 -10.925781 21.425781 -14.0625 23.71875 -18.28125 C 26.007812 -22.507812 27.15625 -28.125 27.15625 -35.125 L 27.15625 -218.328125 C 27.15625 -225.328125 26.007812 -230.878906 23.71875 -234.984375 C 21.425781 -239.085938 18.832031 -242.222656 15.9375 -244.390625 C 13.039062 -246.566406 10.441406 -248.015625 8.140625 -248.734375 C 5.847656 -249.460938 4.703125 -249.828125 4.703125 -249.828125 L 4.703125 -253.4375 L 81.109375 -253.4375 L 81.109375 -249.828125 C 81.109375 -249.828125 79.296875 -249.039062 75.671875 -247.46875 C 72.046875 -245.894531 68.363281 -243.054688 64.625 -238.953125 C 60.882812 -234.859375 59.015625 -228.945312 59.015625 -221.21875 L 59.015625 -6.515625 L 105.71875 -6.515625 C 112 -6.515625 117.128906 -8.804688 121.109375 -13.390625 C 125.085938 -17.984375 128.160156 -23.65625 130.328125 -30.40625 C 132.503906 -37.164062 134.078125 -43.984375 135.046875 -50.859375 C 136.015625 -57.742188 136.617188 -63.476562 136.859375 -68.0625 C 137.097656 -72.65625 137.21875 -74.953125 137.21875 -74.953125 Z M 137.21875 -74.953125 "/></g></g></g><g fill="#515712" fill-opacity="1"><g transform="translate(325.374893, 269.604793)"><g><path d="M 106.453125 2.171875 C 89.554688 2.171875 75.914062 -0.300781 65.53125 -5.25 C 55.15625 -10.195312 47.25 -16.351562 41.8125 -23.71875 C 36.382812 -31.082031 32.644531 -38.441406 30.59375 -45.796875 C 28.539062 -53.160156 27.394531 -59.316406 27.15625 -64.265625 C 26.914062 -69.210938 26.796875 -71.6875 26.796875 -71.6875 L 26.796875 -218.328125 C 26.796875 -225.328125 25.644531 -230.878906 23.34375 -234.984375 C 21.050781 -239.085938 18.457031 -242.222656 15.5625 -244.390625 C 12.664062 -246.566406 10.070312 -248.015625 7.78125 -248.734375 C 5.488281 -249.460938 4.34375 -249.828125 4.34375 -249.828125 L 4.34375 -253.4375 L 81.109375 -253.4375 L 81.109375 -249.828125 C 81.109375 -249.828125 79.957031 -249.460938 77.65625 -248.734375 C 75.363281 -248.015625 72.769531 -246.566406 69.875 -244.390625 C 66.976562 -242.222656 64.382812 -239.085938 62.09375 -234.984375 C 59.800781 -230.878906 58.65625 -225.328125 58.65625 -218.328125 L 58.65625 -65.171875 C 58.65625 -54.546875 60.523438 -44.585938 64.265625 -35.296875 C 68.003906 -26.003906 73.429688 -18.519531 80.546875 -12.84375 C 87.671875 -7.175781 96.304688 -4.34375 106.453125 -4.34375 C 117.546875 -4.34375 126.710938 -7.054688 133.953125 -12.484375 C 141.203125 -17.921875 146.878906 -24.984375 150.984375 -33.671875 C 155.085938 -42.359375 158.164062 -51.585938 160.21875 -61.359375 C 162.269531 -71.140625 163.535156 -80.492188 164.015625 -89.421875 L 164.015625 -218.328125 C 164.015625 -225.328125 162.867188 -230.878906 160.578125 -234.984375 C 158.285156 -239.085938 155.691406 -242.222656 152.796875 -244.390625 C 149.898438 -246.566406 147.300781 -248.015625 145 -248.734375 C 142.707031 -249.460938 141.5625 -249.828125 141.5625 -249.828125 L 141.5625 -253.4375 L 199.140625 -253.4375 L 199.140625 -249.828125 C 199.140625 -249.828125 197.988281 -249.460938 195.6875 -248.734375 C 193.394531 -248.015625 190.738281 -246.566406 187.71875 -244.390625 C 184.707031 -242.222656 182.054688 -239.085938 179.765625 -234.984375 C 177.472656 -230.878906 176.328125 -225.328125 176.328125 -218.328125 L 176.328125 -88.34375 C 176.328125 -88.34375 176.265625 -86.171875 176.140625 -81.828125 C 176.023438 -77.484375 175.484375 -71.867188 174.515625 -64.984375 C 173.546875 -58.109375 171.734375 -50.804688 169.078125 -43.078125 C 166.421875 -35.359375 162.554688 -28.054688 157.484375 -21.171875 C 152.421875 -14.296875 145.722656 -8.6875 137.390625 -4.34375 C 129.066406 0 118.753906 2.171875 106.453125 2.171875 Z M 106.453125 2.171875 "/></g></g></g><g fill="#515712" fill-opacity="1"><g transform="translate(523.779952, 269.604793)"><g><path d="M 144.09375 -72.78125 L 144.09375 -73.5 C 144.09375 -83.15625 142.582031 -91.117188 139.5625 -97.390625 C 136.550781 -103.671875 132.753906 -108.5625 128.171875 -112.0625 C 123.585938 -115.5625 119 -118.09375 114.40625 -119.65625 C 109.820312 -121.226562 106.019531 -122.191406 103 -122.546875 C 99.988281 -122.910156 98.484375 -123.09375 98.484375 -123.09375 L 58.296875 -123.09375 L 58.296875 -6.515625 L 97.75 -6.515625 C 106.925781 -6.515625 114.46875 -8.320312 120.375 -11.9375 C 126.289062 -15.5625 130.878906 -20.207031 134.140625 -25.875 C 137.398438 -31.550781 139.753906 -37.46875 141.203125 -43.625 C 142.648438 -49.78125 143.492188 -55.515625 143.734375 -60.828125 C 143.972656 -66.140625 144.09375 -70.125 144.09375 -72.78125 Z M 85.078125 -247.28125 L 58.296875 -247.28125 L 58.296875 -129.625 L 90.15625 -129.625 C 100.050781 -129.625 108.015625 -131.851562 114.046875 -136.3125 C 120.078125 -140.78125 124.660156 -146.269531 127.796875 -152.78125 C 130.941406 -159.300781 133.117188 -165.757812 134.328125 -172.15625 C 135.535156 -178.550781 136.195312 -183.984375 136.3125 -188.453125 C 136.4375 -192.921875 136.5 -195.15625 136.5 -195.15625 L 136.5 -195.515625 C 136.5 -206.128906 134.75 -214.753906 131.25 -221.390625 C 127.75 -228.035156 123.460938 -233.164062 118.390625 -236.78125 C 113.328125 -240.40625 108.257812 -242.941406 103.1875 -244.390625 C 98.113281 -245.835938 93.828125 -246.679688 90.328125 -246.921875 C 86.828125 -247.160156 85.078125 -247.28125 85.078125 -247.28125 Z M 119.125 -127.8125 C 137.21875 -123.945312 151.273438 -117.609375 161.296875 -108.796875 C 171.316406 -99.984375 176.328125 -86.164062 176.328125 -67.34375 L 176.328125 -66.984375 C 176.328125 -60.703125 175.359375 -53.757812 173.421875 -46.15625 C 171.492188 -38.5625 168.054688 -31.265625 163.109375 -24.265625 C 158.160156 -17.265625 151.160156 -11.46875 142.109375 -6.875 C 133.054688 -2.289062 121.289062 0 106.8125 0 L 4.34375 0 L 4.34375 -3.625 C 4.34375 -3.625 6.09375 -3.984375 9.59375 -4.703125 C 13.09375 -5.429688 16.648438 -7.300781 20.265625 -10.3125 C 23.890625 -13.332031 26.066406 -18.34375 26.796875 -25.34375 L 26.796875 -228.09375 C 26.066406 -235.09375 23.890625 -240.101562 20.265625 -243.125 C 16.648438 -246.144531 13.09375 -248.015625 9.59375 -248.734375 C 6.09375 -249.460938 4.34375 -249.828125 4.34375 -249.828125 L 4.34375 -253.4375 L 89.421875 -253.4375 C 104.148438 -253.4375 116.460938 -251.445312 126.359375 -247.46875 C 136.253906 -243.488281 144.097656 -238.300781 149.890625 -231.90625 C 155.679688 -225.507812 159.84375 -218.628906 162.375 -211.265625 C 164.914062 -203.898438 166.304688 -196.835938 166.546875 -190.078125 L 166.546875 -189.71875 C 167.023438 -179.820312 165.9375 -170.40625 163.28125 -161.46875 C 160.632812 -152.539062 155.75 -145.0625 148.625 -139.03125 C 141.507812 -133 131.675781 -129.257812 119.125 -127.8125 Z M 119.125 -127.8125 "/></g></g></g></g></g><g transform="matrix(1, 0, 0, 1, 0, 183)"><g clip-path="url(#adea7baab6)"><g clip-path="url(#8adfc31297)"><g fill="#515712" fill-opacity="1"><g transform="translate(167.924183, 709.466783)"><g><path d="M -142.96875 192.90625 C -159.90625 192.90625 -168.375 187.597656 -168.375 176.984375 C -168.375 168.367188 -162.988281 157.457031 -152.21875 144.25 C -141.457031 131.050781 -126.382812 116.769531 -107 101.40625 C -87.625 86.050781 -64.875 71.050781 -38.75 56.40625 C -12.625 41.769531 15.863281 28.632812 46.71875 17 C 77.582031 5.375 109.804688 -3.304688 143.390625 -9.046875 C 164.640625 -26.265625 185.023438 -42.695312 204.546875 -58.34375 C 224.066406 -73.988281 241.863281 -87.695312 257.9375 -99.46875 C 256.5 -98.601562 251.757812 -96.019531 243.71875 -91.71875 C 235.6875 -87.414062 225.566406 -82.320312 213.359375 -76.4375 C 201.160156 -70.550781 187.738281 -64.734375 173.09375 -58.984375 C 158.457031 -53.242188 143.675781 -48.4375 128.75 -44.5625 C 113.820312 -40.6875 99.753906 -38.75 86.546875 -38.75 C 58.703125 -38.75 38.175781 -44.273438 24.96875 -55.328125 C 11.769531 -66.378906 5.171875 -80.660156 5.171875 -98.171875 C 5.171875 -114.828125 10.695312 -133.054688 21.75 -152.859375 C 32.800781 -172.671875 48.875 -192.335938 69.96875 -211.859375 C 91.070312 -231.378906 116.550781 -249.320312 146.40625 -265.6875 C 176.257812 -282.050781 210.132812 -295.179688 248.03125 -305.078125 C 285.925781 -314.984375 327.265625 -319.9375 372.046875 -319.9375 C 396.734375 -319.9375 416.613281 -317.492188 431.6875 -312.609375 C 446.757812 -307.734375 457.953125 -301.492188 465.265625 -293.890625 C 472.585938 -286.285156 476.820312 -278.03125 477.96875 -269.125 C 480.269531 -270.28125 482.710938 -271.429688 485.296875 -272.578125 C 487.878906 -273.722656 490.609375 -274.867188 493.484375 -276.015625 C 495.773438 -273.429688 496.921875 -271.710938 496.921875 -270.859375 C 494.910156 -269.992188 492.109375 -268.695312 488.515625 -266.96875 C 484.929688 -265.25 481.5625 -263.53125 478.40625 -261.8125 C 478.40625 -252.332031 475.75 -243.285156 470.4375 -234.671875 C 465.125 -226.066406 458.519531 -218.960938 450.625 -213.359375 C 442.738281 -207.765625 434.488281 -204.96875 425.875 -204.96875 C 417.832031 -204.96875 413.8125 -207.835938 413.8125 -213.578125 C 413.8125 -219.035156 418.332031 -226.425781 427.375 -235.75 C 436.414062 -245.082031 450.125 -254.628906 468.5 -264.390625 C 468.5 -274.441406 465.554688 -282.695312 459.671875 -289.15625 C 453.785156 -295.613281 446.25 -300.5625 437.0625 -304 C 427.882812 -307.445312 418.554688 -309.816406 409.078125 -311.109375 C 399.609375 -312.398438 391.140625 -313.046875 383.671875 -313.046875 C 356.398438 -313.046875 328.84375 -309.097656 301 -301.203125 C 273.15625 -293.316406 246.023438 -282.769531 219.609375 -269.5625 C 193.203125 -256.351562 168.515625 -241.566406 145.546875 -225.203125 C 122.578125 -208.835938 102.410156 -191.972656 85.046875 -174.609375 C 67.679688 -157.242188 54.117188 -140.519531 44.359375 -124.4375 C 34.597656 -108.363281 29.71875 -94.15625 29.71875 -81.8125 C 29.71875 -70.332031 34.523438 -61.21875 44.140625 -54.46875 C 53.753906 -47.726562 69.039062 -44.359375 90 -44.359375 C 101.476562 -44.359375 115.113281 -46.4375 130.90625 -50.59375 C 146.695312 -54.757812 163.347656 -60.285156 180.859375 -67.171875 C 198.367188 -74.066406 215.804688 -81.960938 233.171875 -90.859375 C 250.546875 -99.753906 266.695312 -109.082031 281.625 -118.84375 C 296.550781 -128.601562 309.179688 -138.078125 319.515625 -147.265625 L 325.546875 -142.53125 C 315.203125 -137.070312 298.1875 -125.082031 274.5 -106.5625 C 250.820312 -88.050781 223.335938 -63.4375 192.046875 -32.71875 L 172.25 -12.921875 C 187.457031 -14.640625 202.523438 -15.5 217.453125 -15.5 L 246.3125 -15.5 L 242.859375 -2.578125 C 239.128906 -4.015625 232.671875 -5.453125 223.484375 -6.890625 C 214.296875 -8.328125 203.675781 -9.046875 191.625 -9.046875 C 187.882812 -9.046875 184.003906 -9.046875 179.984375 -9.046875 C 175.972656 -9.046875 171.8125 -8.757812 167.5 -8.1875 C 152 9.613281 135.492188 27.914062 117.984375 46.71875 C 100.472656 65.519531 81.957031 83.601562 62.4375 100.96875 C 42.914062 118.34375 22.316406 133.921875 0.640625 147.703125 C -21.023438 161.484375 -43.769531 172.460938 -67.59375 180.640625 C -91.425781 188.816406 -116.550781 192.90625 -142.96875 192.90625 Z M -148.984375 186.015625 C -138.648438 186.015625 -125.660156 182.351562 -110.015625 175.03125 C -94.367188 167.71875 -76.859375 157.671875 -57.484375 144.890625 C -38.109375 132.117188 -17.65625 117.625 3.875 101.40625 C 25.40625 85.1875 47.4375 68.101562 69.96875 50.15625 C 92.507812 32.21875 114.6875 14.351562 136.5 -3.4375 C 103.769531 2.582031 72.40625 11.476562 42.40625 23.25 C 12.414062 35.019531 -15.132812 48.082031 -40.25 62.4375 C -65.375 76.789062 -87.265625 91.285156 -105.921875 105.921875 C -124.585938 120.566406 -139.015625 133.988281 -149.203125 146.1875 C -159.398438 158.394531 -164.5 168.085938 -164.5 175.265625 C -164.5 182.429688 -159.328125 186.015625 -148.984375 186.015625 Z M -148.984375 186.015625 "/></g></g></g></g><g fill="#515712" fill-opacity="1"><g transform="translate(452.989231, 709.466783)"><g><path d="M 21.96875 12.484375 C 12.488281 12.484375 7.75 6.171875 7.75 -6.453125 C 7.75 -13.347656 10.332031 -20.671875 15.5 -28.421875 C 20.664062 -36.171875 27.265625 -43.992188 35.296875 -51.890625 C 43.335938 -59.785156 51.953125 -67.535156 61.140625 -75.140625 C 70.328125 -82.742188 78.941406 -89.921875 86.984375 -96.671875 C 95.023438 -103.421875 101.628906 -109.445312 106.796875 -114.75 C 111.960938 -120.0625 114.546875 -124.296875 114.546875 -127.453125 C 114.546875 -128.890625 114.253906 -131.332031 113.671875 -134.78125 C 113.097656 -138.226562 112.523438 -141.960938 111.953125 -145.984375 C 108.796875 -142.242188 103.125 -136.5 94.9375 -128.75 C 86.757812 -121 75.0625 -111.164062 59.84375 -99.25 C 44.632812 -87.34375 24.6875 -73.347656 0 -57.265625 L -3.015625 -59.859375 C 23.398438 -77.078125 44.425781 -91.785156 60.0625 -103.984375 C 75.707031 -116.191406 87.476562 -126.097656 95.375 -133.703125 C 103.269531 -141.304688 108.65625 -146.832031 111.53125 -150.28125 L 111.53125 -158.46875 C 111.53125 -167.363281 113.894531 -173.890625 118.625 -178.046875 C 123.363281 -182.210938 128.03125 -184.296875 132.625 -184.296875 C 138.65625 -184.296875 141.671875 -181.710938 141.671875 -176.546875 C 141.671875 -171.953125 139.085938 -167.570312 133.921875 -163.40625 C 128.753906 -159.25 124.445312 -156.453125 121 -155.015625 C 118.707031 -153.867188 117.5625 -152.148438 117.5625 -149.859375 C 117.5625 -143.535156 118.207031 -137.144531 119.5 -130.6875 C 120.789062 -124.226562 121.4375 -117.695312 121.4375 -111.09375 C 121.4375 -102.769531 118.0625 -94.445312 111.3125 -86.125 C 104.5625 -77.800781 96.234375 -69.546875 86.328125 -61.359375 C 76.429688 -53.179688 66.457031 -45.359375 56.40625 -37.890625 C 46.363281 -30.429688 37.96875 -23.472656 31.21875 -17.015625 C 24.46875 -10.554688 21.09375 -4.738281 21.09375 0.4375 C 21.09375 5.03125 23.25 7.328125 27.5625 7.328125 C 33.007812 7.328125 41.332031 4.097656 52.53125 -2.359375 C 63.726562 -8.828125 77.363281 -17.367188 93.4375 -27.984375 C 109.519531 -38.609375 127.320312 -50.378906 146.84375 -63.296875 L 148.5625 -59.859375 C 129.613281 -47.222656 111.882812 -35.378906 95.375 -24.328125 C 78.875 -13.273438 64.378906 -4.378906 51.890625 2.359375 C 39.398438 9.109375 29.425781 12.484375 21.96875 12.484375 Z M 21.96875 12.484375 "/></g></g></g><g fill="#515712" fill-opacity="1"><g transform="translate(597.674819, 709.466783)"><g><path d="M -15.9375 8.1875 C -25.125 8.1875 -29.71875 2.875 -29.71875 -7.75 C -29.71875 -14.632812 -27.347656 -23.03125 -22.609375 -32.9375 C -17.867188 -42.84375 -10.757812 -53.035156 -1.28125 -63.515625 C 8.1875 -73.992188 19.953125 -83.753906 34.015625 -92.796875 C 48.085938 -101.835938 64.59375 -109.15625 83.53125 -114.75 C 102.476562 -120.351562 123.722656 -123.15625 147.265625 -123.15625 C 150.421875 -123.15625 153.722656 -123.082031 157.171875 -122.9375 C 160.617188 -122.789062 164.351562 -122.71875 168.375 -122.71875 C 173.25 -122.71875 178.410156 -122.859375 183.859375 -123.140625 C 189.316406 -123.429688 195.207031 -124.007812 201.53125 -124.875 L 202.390625 -123.578125 C 196.359375 -118.410156 188.601562 -111.085938 179.125 -101.609375 C 169.65625 -92.140625 159.109375 -81.519531 147.484375 -69.75 C 135.859375 -57.988281 123.585938 -45.789062 110.671875 -33.15625 C 96.316406 -18.800781 89.140625 -8.609375 89.140625 -2.578125 C 89.140625 0.00390625 90.71875 1.296875 93.875 1.296875 C 96.738281 1.296875 100.828125 0.21875 106.140625 -1.9375 C 111.453125 -4.09375 117.84375 -7.46875 125.3125 -12.0625 C 135.351562 -18.664062 147.046875 -26.414062 160.390625 -35.3125 C 173.742188 -44.207031 187.882812 -53.535156 202.8125 -63.296875 L 204.546875 -59.859375 C 189.609375 -50.097656 175.609375 -40.765625 162.546875 -31.859375 C 149.492188 -22.960938 137.507812 -15.070312 126.59375 -8.1875 C 119.132812 -3.59375 111.882812 -0.078125 104.84375 2.359375 C 97.8125 4.804688 91.710938 6.03125 86.546875 6.03125 C 75.359375 6.03125 69.765625 1.722656 69.765625 -6.890625 C 69.765625 -10.910156 71.34375 -15.929688 74.5 -21.953125 C 77.65625 -27.984375 82.675781 -34.734375 89.5625 -42.203125 L 101.625 -55.125 C 92.4375 -48.226562 82.390625 -41.117188 71.484375 -33.796875 C 60.578125 -26.484375 49.738281 -19.664062 38.96875 -13.34375 C 28.207031 -7.03125 18.015625 -1.863281 8.390625 2.15625 C -1.222656 6.175781 -9.332031 8.1875 -15.9375 8.1875 Z M -11.203125 3.4375 C -5.171875 3.4375 3.15625 0.925781 13.78125 -4.09375 C 24.40625 -9.113281 35.890625 -15.570312 48.234375 -23.46875 C 60.578125 -31.363281 72.847656 -39.546875 85.046875 -48.015625 C 97.242188 -56.484375 107.9375 -64.160156 117.125 -71.046875 C 124.59375 -78.515625 132.128906 -86.050781 139.734375 -93.65625 C 147.335938 -101.257812 154.875 -108.796875 162.34375 -116.265625 C 162.34375 -116.546875 162.410156 -116.757812 162.546875 -116.90625 C 162.691406 -117.050781 162.765625 -117.269531 162.765625 -117.5625 C 162.765625 -118.707031 161.90625 -119.28125 160.1875 -119.28125 L 143.390625 -119.28125 C 133.347656 -119.28125 122.441406 -116.910156 110.671875 -112.171875 C 98.898438 -107.429688 87.054688 -101.113281 75.140625 -93.21875 C 63.222656 -85.332031 51.8125 -76.796875 40.90625 -67.609375 C 30 -58.421875 20.3125 -49.375 11.84375 -40.46875 C 3.375 -31.570312 -3.367188 -23.535156 -8.390625 -16.359375 C -13.421875 -9.179688 -15.9375 -3.875 -15.9375 -0.4375 C -15.9375 2.144531 -14.359375 3.4375 -11.203125 3.4375 Z M -11.203125 3.4375 "/></g></g></g><g fill="#515712" fill-opacity="1"><g transform="translate(798.339935, 709.466783)"><g><path d="M 105.0625 12.484375 C 100.46875 12.484375 96.664062 10.6875 93.65625 7.09375 C 90.644531 3.507812 89.140625 -1.582031 89.140625 -8.1875 C 89.140625 -13.0625 91.578125 -18.800781 96.453125 -25.40625 C 101.335938 -32.007812 107.65625 -39.039062 115.40625 -46.5 C 123.15625 -53.96875 131.332031 -61.359375 139.9375 -68.671875 C 148.550781 -75.992188 156.734375 -82.957031 164.484375 -89.5625 C 172.242188 -96.164062 178.5625 -101.835938 183.4375 -106.578125 C 188.320312 -111.316406 190.765625 -114.6875 190.765625 -116.6875 C 190.765625 -117.550781 190.046875 -117.984375 188.609375 -117.984375 C 183.441406 -117.984375 175.472656 -115.253906 164.703125 -109.796875 C 153.941406 -104.347656 141.882812 -97.390625 128.53125 -88.921875 C 115.1875 -80.453125 101.765625 -71.550781 88.265625 -62.21875 C 74.773438 -52.894531 62.578125 -44.210938 51.671875 -36.171875 C 40.191406 -23.828125 26.410156 -9.617188 10.328125 6.453125 C 3.148438 6.453125 -4.09375 6.664062 -11.40625 7.09375 C -18.726562 7.53125 -24.539062 8.035156 -28.84375 8.609375 L -30.140625 6.03125 C -25.546875 2.582031 -19.226562 -2.367188 -11.1875 -8.828125 C -3.15625 -15.285156 5.664062 -22.675781 15.28125 -31 C 24.90625 -39.320312 34.597656 -47.863281 44.359375 -56.625 C 54.117188 -65.382812 63.015625 -73.851562 71.046875 -82.03125 C 79.085938 -90.207031 85.617188 -97.453125 90.640625 -103.765625 C 95.660156 -110.085938 98.171875 -114.828125 98.171875 -117.984375 C 98.171875 -119.421875 97.3125 -120.140625 95.59375 -120.140625 C 94.15625 -120.140625 90.78125 -118.488281 85.46875 -115.1875 C 80.164062 -111.882812 73.78125 -107.722656 66.3125 -102.703125 C 58.851562 -97.679688 51.390625 -92.582031 43.921875 -87.40625 C 36.453125 -82.238281 29.847656 -77.648438 24.109375 -73.640625 L 0 -57.265625 L -3.015625 -59.859375 L 23.25 -77.515625 C 35.3125 -85.835938 46.9375 -93.800781 58.125 -101.40625 C 69.320312 -109.007812 79.367188 -115.320312 88.265625 -120.34375 C 97.171875 -125.375 104.0625 -127.890625 108.9375 -127.890625 C 112.101562 -127.890625 114.257812 -127.023438 115.40625 -125.296875 C 116.550781 -123.578125 117.125 -121.570312 117.125 -119.28125 C 117.125 -114.6875 113.316406 -107.148438 105.703125 -96.671875 C 98.097656 -86.191406 84.535156 -70.617188 65.015625 -49.953125 C 75.929688 -57.703125 87.628906 -65.8125 100.109375 -74.28125 C 112.597656 -82.75 124.800781 -90.640625 136.71875 -97.953125 C 148.632812 -105.273438 159.398438 -111.234375 169.015625 -115.828125 C 178.628906 -120.421875 186.019531 -122.71875 191.1875 -122.71875 C 198.363281 -122.71875 201.953125 -119.414062 201.953125 -112.8125 C 201.953125 -104.488281 198.648438 -95.804688 192.046875 -86.765625 C 185.441406 -77.722656 177.332031 -68.75 167.71875 -59.84375 C 158.101562 -50.945312 148.414062 -42.550781 138.65625 -34.65625 C 128.894531 -26.769531 120.710938 -19.738281 114.109375 -13.5625 C 107.503906 -7.394531 104.203125 -2.726562 104.203125 0.4375 C 104.203125 5.03125 106.359375 7.328125 110.671875 7.328125 C 116.117188 7.328125 124.441406 4.097656 135.640625 -2.359375 C 146.835938 -8.828125 160.472656 -17.367188 176.546875 -27.984375 C 192.617188 -38.609375 210.421875 -50.378906 229.953125 -63.296875 L 231.671875 -59.859375 C 212.722656 -47.222656 194.992188 -35.378906 178.484375 -24.328125 C 161.984375 -13.273438 147.488281 -4.378906 135 2.359375 C 122.507812 9.109375 112.53125 12.484375 105.0625 12.484375 Z M 105.0625 12.484375 "/></g></g></g><g fill="#515712" fill-opacity="1"><g transform="translate(1026.133604, 709.466783)"><g><path d="M -15.9375 8.1875 C -25.125 8.1875 -29.71875 2.875 -29.71875 -7.75 C -29.71875 -14.632812 -27.347656 -23.03125 -22.609375 -32.9375 C -17.867188 -42.84375 -10.757812 -53.035156 -1.28125 -63.515625 C 8.1875 -73.992188 19.953125 -83.753906 34.015625 -92.796875 C 48.085938 -101.835938 64.59375 -109.15625 83.53125 -114.75 C 102.476562 -120.351562 123.722656 -123.15625 147.265625 -123.15625 C 150.140625 -123.15625 153.582031 -123.082031 157.59375 -122.9375 C 161.613281 -122.789062 165.921875 -122.429688 170.515625 -121.859375 C 194.347656 -143.109375 217.242188 -162.988281 239.203125 -181.5 C 261.160156 -200.019531 280.179688 -217.316406 296.265625 -233.390625 C 303.441406 -233.390625 311.117188 -233.675781 319.296875 -234.25 C 327.472656 -234.820312 334.144531 -235.253906 339.3125 -235.546875 L 340.609375 -232.953125 C 326.828125 -222.910156 311.035156 -210.492188 293.234375 -195.703125 C 275.441406 -180.921875 256.640625 -164.988281 236.828125 -147.90625 C 217.023438 -130.832031 197.429688 -113.753906 178.046875 -96.671875 C 158.671875 -79.585938 140.515625 -63.582031 123.578125 -48.65625 C 120.140625 -45.5 115.691406 -41.191406 110.234375 -35.734375 C 104.773438 -30.285156 99.960938 -24.6875 95.796875 -18.9375 C 91.640625 -13.195312 89.5625 -8.460938 89.5625 -4.734375 C 89.5625 -0.140625 92.144531 2.15625 97.3125 2.15625 C 102.476562 2.15625 108.863281 0.429688 116.46875 -3.015625 C 124.082031 -6.460938 129.898438 -9.476562 133.921875 -12.0625 C 143.960938 -18.664062 155.65625 -26.414062 169 -35.3125 C 182.351562 -44.207031 196.492188 -53.535156 211.421875 -63.296875 L 213.15625 -59.859375 C 198.226562 -50.097656 184.300781 -40.691406 171.375 -31.640625 C 158.457031 -22.597656 146.40625 -14.78125 135.21875 -8.1875 C 128.894531 -4.445312 121.785156 -0.925781 113.890625 2.375 C 105.992188 5.675781 99.035156 7.328125 93.015625 7.328125 C 88.703125 7.328125 85.179688 6.25 82.453125 4.09375 C 79.734375 1.9375 78.375 -1.722656 78.375 -6.890625 C 78.375 -13.492188 80.8125 -21.316406 85.6875 -30.359375 C 90.570312 -39.398438 95.738281 -47.507812 101.1875 -54.6875 C 92 -47.800781 82.023438 -40.695312 71.265625 -33.375 C 60.503906 -26.050781 49.738281 -19.226562 38.96875 -12.90625 C 28.207031 -6.59375 18.015625 -1.5 8.390625 2.375 C -1.222656 6.25 -9.332031 8.1875 -15.9375 8.1875 Z M -11.203125 3.4375 C -5.171875 3.4375 2.796875 1.144531 12.703125 -3.4375 C 22.609375 -8.03125 33.445312 -13.988281 45.21875 -21.3125 C 56.988281 -28.632812 68.6875 -36.382812 80.3125 -44.5625 C 91.9375 -52.75 102.484375 -60.285156 111.953125 -67.171875 C 120.859375 -75.785156 129.6875 -84.253906 138.4375 -92.578125 C 147.195312 -100.898438 156.023438 -108.9375 164.921875 -116.6875 C 164.921875 -117.550781 163.914062 -118.195312 161.90625 -118.625 C 159.894531 -119.0625 153.722656 -119.28125 143.390625 -119.28125 C 133.347656 -119.28125 122.441406 -116.910156 110.671875 -112.171875 C 98.898438 -107.429688 87.054688 -101.113281 75.140625 -93.21875 C 63.222656 -85.332031 51.8125 -76.796875 40.90625 -67.609375 C 30 -58.421875 20.3125 -49.375 11.84375 -40.46875 C 3.375 -31.570312 -3.367188 -23.535156 -8.390625 -16.359375 C -13.421875 -9.179688 -15.9375 -3.875 -15.9375 -0.4375 C -15.9375 2.144531 -14.359375 3.4375 -11.203125 3.4375 Z M -11.203125 3.4375 "/></g></g></g><g fill="#515712" fill-opacity="1"><g transform="translate(1234.980337, 709.466783)"><g><path d="M 103.78125 -148.125 L 101.1875 -148.984375 C 103.769531 -154.441406 106.710938 -160.539062 110.015625 -167.28125 C 113.316406 -174.03125 115.832031 -178.84375 117.5625 -181.71875 C 118.988281 -183.4375 120.5625 -184.4375 122.28125 -184.71875 C 124.007812 -185.007812 125.304688 -185.15625 126.171875 -185.15625 C 130.191406 -185.15625 135.5 -185.007812 142.09375 -184.71875 C 148.695312 -184.4375 154.296875 -184.007812 158.890625 -183.4375 L 159.75 -180.421875 C 152.863281 -176.398438 145.328125 -172.019531 137.140625 -167.28125 C 128.960938 -162.550781 121.785156 -158.390625 115.609375 -154.796875 C 109.441406 -151.210938 105.5 -148.988281 103.78125 -148.125 Z M -18.078125 9.46875 C -22.671875 9.46875 -26.472656 8.25 -29.484375 5.8125 C -32.503906 3.375 -34.015625 -0.859375 -34.015625 -6.890625 C -34.015625 -9.472656 -32.9375 -13.203125 -30.78125 -18.078125 C -28.632812 -22.960938 -24.398438 -29.78125 -18.078125 -38.53125 C -11.765625 -47.289062 -2.507812 -58.628906 9.6875 -72.546875 C 21.882812 -86.472656 38.175781 -103.773438 58.5625 -124.453125 C 65.738281 -124.453125 72.988281 -124.738281 80.3125 -125.3125 C 87.632812 -125.882812 93.445312 -126.3125 97.75 -126.59375 L 99.046875 -124.015625 C 93.585938 -119.992188 86.046875 -113.820312 76.421875 -105.5 C 66.804688 -97.175781 56.546875 -87.84375 45.640625 -77.5 C 34.734375 -67.164062 24.398438 -56.90625 14.640625 -46.71875 C 4.878906 -36.53125 -3.15625 -27.628906 -9.46875 -20.015625 C -15.789062 -12.410156 -18.953125 -7.03125 -18.953125 -3.875 C -18.953125 1.582031 -16.222656 4.3125 -10.765625 4.3125 C -5.878906 4.3125 0.289062 2.445312 7.75 -1.28125 C 15.21875 -5.019531 21.675781 -8.613281 27.125 -12.0625 C 37.175781 -18.664062 48.875 -26.414062 62.21875 -35.3125 C 75.570312 -44.207031 89.710938 -53.535156 104.640625 -63.296875 L 106.359375 -59.859375 C 91.429688 -50.097656 77.4375 -40.765625 64.375 -31.859375 C 51.3125 -22.960938 39.328125 -15.070312 28.421875 -8.1875 C 23.253906 -5.019531 16.078125 -1.285156 6.890625 3.015625 C -2.296875 7.316406 -10.617188 9.46875 -18.078125 9.46875 Z M -18.078125 9.46875 "/></g></g></g><g fill="#515712" fill-opacity="1"><g transform="translate(1337.035354, 709.466783)"><g><path d="M 0.859375 10.328125 C -16.078125 10.328125 -28.0625 6.738281 -35.09375 -0.4375 C -42.125 -7.613281 -45.640625 -15.648438 -45.640625 -24.546875 C -45.640625 -31.722656 -43.914062 -38.679688 -40.46875 -45.421875 C -37.03125 -52.171875 -32.4375 -57.769531 -26.6875 -62.21875 C -20.945312 -66.664062 -14.78125 -68.890625 -8.1875 -68.890625 C -1.289062 -68.890625 3.878906 -67.171875 7.328125 -63.734375 C 22.535156 -72.921875 36.523438 -82.609375 49.296875 -92.796875 C 62.078125 -102.984375 73.273438 -112.671875 82.890625 -121.859375 C 92.503906 -131.046875 99.894531 -138.65625 105.0625 -144.6875 C 107.070312 -146.695312 109.507812 -149.925781 112.375 -154.375 C 115.25 -158.820312 117.691406 -162.769531 119.703125 -166.21875 L 135.21875 -159.75 C 128.320312 -158.320312 123.507812 -154.445312 120.78125 -148.125 C 118.050781 -141.8125 116.253906 -133.914062 115.390625 -124.4375 C 114.535156 -114.96875 113.316406 -104.707031 111.734375 -93.65625 C 110.160156 -82.601562 107.21875 -71.332031 102.90625 -59.84375 C 98.601562 -48.363281 91.710938 -37.457031 82.234375 -27.125 C 72.765625 -16.789062 59.421875 -7.894531 42.203125 -0.4375 C 49.660156 -2.15625 60.566406 -6.023438 74.921875 -12.046875 C 89.273438 -18.078125 104.347656 -26.40625 120.140625 -37.03125 L 159.75 -63.296875 L 161.484375 -59.859375 L 122.296875 -33.59375 C 102.203125 -20.382812 81.675781 -9.757812 60.71875 -1.71875 C 39.757812 6.3125 19.804688 10.328125 0.859375 10.328125 Z M -14.640625 1.296875 C 0.859375 1.296875 14.851562 -2.789062 27.34375 -10.96875 C 39.832031 -19.15625 50.8125 -29.5625 60.28125 -42.1875 C 69.757812 -54.820312 77.867188 -67.957031 84.609375 -81.59375 C 91.359375 -95.226562 96.742188 -107.71875 100.765625 -119.0625 C 104.785156 -130.40625 107.507812 -138.660156 108.9375 -143.828125 C 90.570312 -124.304688 72.847656 -107.726562 55.765625 -94.09375 C 38.679688 -80.457031 23.394531 -69.1875 9.90625 -60.28125 C 10.769531 -59.132812 11.203125 -57.703125 11.203125 -55.984375 C 11.203125 -51.097656 9.117188 -46.71875 4.953125 -42.84375 C 0.785156 -38.96875 -4.304688 -36.023438 -10.328125 -34.015625 C -16.359375 -32.003906 -22.390625 -31 -28.421875 -31 C -30.429688 -31 -32.441406 -31.140625 -34.453125 -31.421875 C -36.460938 -31.710938 -38.328125 -32.144531 -40.046875 -32.71875 C -40.910156 -29.851562 -41.34375 -27.128906 -41.34375 -24.546875 C -41.34375 -18.515625 -39.691406 -13.5625 -36.390625 -9.6875 C -33.085938 -5.8125 -29.351562 -3.007812 -25.1875 -1.28125 C -21.03125 0.4375 -17.515625 1.296875 -14.640625 1.296875 Z M -14.640625 1.296875 "/></g></g></g></g></g></svg>